<?xml version="1.0" standalone="no"?>
<!DOCTYPE svg PUBLIC "-//W3C//DTD SVG 20010904//EN"
 "http://www.w3.org/TR/2001/REC-SVG-20010904/DTD/svg10.dtd">
<svg version="1.0" xmlns="http://www.w3.org/2000/svg"
 width="1280.000000pt" height="867.000000pt" viewBox="0 0 1280.000000 867.000000"
 preserveAspectRatio="xMidYMid meet">
<metadata>
Created by potrace 1.15, written by Peter Selinger 2001-2017
</metadata>
<g transform="translate(0.000000,867.000000) scale(0.100000,-0.100000)"
fill="#000000" stroke="none">
<path d="M1820 5818 l0 -66 -47 -6 c-145 -21 -283 -77 -339 -138 -40 -44 -43
-72 -11 -118 43 -64 252 -150 366 -150 26 0 31 -4 31 -25 0 -22 -5 -25 -32
-25 -44 0 -186 -35 -234 -57 -98 -44 -154 -100 -154 -152 0 -55 114 -134 241
-167 35 -9 71 -18 79 -21 8 -3 -19 -13 -60 -24 -151 -39 -260 -113 -260 -179
0 -83 166 -172 383 -205 l37 -6 0 -319 0 -319 -33 -25 c-19 -14 -46 -49 -62
-77 -23 -42 -27 -60 -23 -104 9 -109 96 -197 228 -231 78 -20 154 -14 237 18
55 20 82 22 470 31 227 5 504 6 615 2 l203 -7 2 -70 c5 -156 65 -290 183 -409
120 -122 266 -182 440 -182 109 0 174 15 280 65 67 32 101 57 160 117 115 116
173 242 184 401 l4 65 143 1 c79 0 995 2 2036 2 l1892 2 -1 108 c-2 125 11
189 59 291 69 145 203 244 398 293 79 20 114 22 285 22 168 -1 206 -4 275 -22
126 -35 201 -76 281 -156 58 -58 81 -90 122 -176 47 -97 102 -277 102 -336 0
-19 8 -22 61 -28 177 -18 406 6 656 69 279 70 398 170 339 283 -17 31 -95 108
-146 143 -19 13 -74 45 -123 70 l-88 45 60 48 c94 76 226 242 315 397 l26 46
-82 7 c-568 44 -1829 105 -2524 122 l-272 7 -72 121 c-87 146 -216 332 -311
451 -43 53 -66 90 -60 94 17 11 -113 146 -172 179 -108 62 -308 118 -502 141
-360 44 -903 63 -1160 42 -674 -56 -1206 -266 -1677 -660 l-98 -82 -62 42
c-35 23 -117 96 -183 164 -121 123 -226 215 -247 215 -6 0 -92 43 -192 97
-451 241 -591 294 -846 318 -36 3 -132 15 -215 26 -283 36 -440 50 -672 56
l-233 6 0 -65z m0 -928 c0 -5 -10 -10 -22 -9 -22 0 -22 1 -3 9 11 5 21 9 23 9
1 1 2 -3 2 -9z"/>
<path d="M9475 4014 c-11 -2 -45 -9 -75 -15 -30 -6 -93 -29 -139 -51 -66 -32
-101 -57 -161 -117 -122 -121 -180 -261 -180 -431 0 -274 175 -506 445 -590
90 -28 241 -31 334 -6 179 48 328 170 407 333 190 392 -85 850 -526 877 -47 3
-94 3 -105 0z"/>
</g>
</svg>
