<?xml version="1.0" standalone="no"?>
<!DOCTYPE svg PUBLIC "-//W3C//DTD SVG 20010904//EN"
 "http://www.w3.org/TR/2001/REC-SVG-20010904/DTD/svg10.dtd">
<svg version="1.0" xmlns="http://www.w3.org/2000/svg"
 width="1280.000000pt" height="640.000000pt" viewBox="0 0 1280.000000 640.000000"
 preserveAspectRatio="xMidYMid meet">
<metadata>
Created by potrace 1.15, written by Peter Selinger 2001-2017
</metadata>
<g transform="translate(0.000000,640.000000) scale(0.100000,-0.100000)"
fill="#000000" stroke="none">
<path d="M347 6190 c-75 -19 -195 -72 -242 -108 -64 -48 -94 -108 -101 -198
-7 -82 8 -123 63 -185 52 -57 107 -86 219 -114 174 -44 188 -51 233 -108 23
-29 67 -70 97 -92 30 -22 54 -44 54 -49 0 -5 -31 -42 -70 -82 l-70 -74 0 -58
c0 -38 8 -72 23 -104 50 -105 316 -390 442 -472 33 -22 96 -67 140 -102 44
-34 105 -76 135 -95 30 -18 75 -49 99 -68 l43 -35 332 -8 c182 -4 377 -10 434
-14 118 -7 111 -1 131 -112 7 -35 24 -103 38 -150 43 -146 44 -138 -23 -152
-80 -16 -336 -86 -381 -105 l-36 -15 6 -173 c7 -182 23 -273 55 -316 l19 -26
265 -3 264 -2 18 -31 c11 -18 19 -53 20 -82 l1 -51 -70 -51 c-94 -68 -184
-154 -262 -250 -74 -91 -164 -239 -186 -305 -8 -25 -24 -66 -36 -92 -11 -26
-35 -98 -53 -160 -32 -111 -33 -116 -33 -318 0 -226 12 -323 67 -509 41 -143
90 -235 198 -371 129 -163 205 -238 338 -332 190 -134 340 -200 567 -248 128
-27 383 -38 510 -21 108 15 296 75 420 134 101 48 111 54 250 147 55 37 154
95 220 128 148 73 223 129 311 229 171 197 257 343 329 563 25 79 26 79 108
74 40 -2 443 -11 897 -19 1010 -19 1591 -34 1605 -43 5 -4 182 -7 392 -7 l383
0 77 -76 c43 -42 116 -104 162 -139 l84 -63 71 6 c114 9 156 29 245 115 43 43
90 96 105 120 31 49 22 48 234 30 167 -14 154 -4 197 -155 14 -48 42 -124 63
-168 42 -91 186 -290 253 -350 92 -83 253 -202 342 -253 51 -30 103 -64 117
-77 36 -33 244 -167 316 -203 93 -47 255 -100 359 -118 72 -12 140 -15 282
-12 176 4 197 7 325 40 295 78 535 234 749 490 95 113 113 141 167 261 63 137
91 227 117 377 70 392 -29 802 -268 1110 -129 166 -300 332 -404 391 -70 40
-83 54 -83 90 0 42 15 68 62 109 39 35 40 39 48 117 6 59 16 94 34 126 22 37
27 59 29 128 2 71 -1 88 -18 111 l-20 27 -175 0 c-96 0 -231 -4 -300 -8 -69
-4 -135 -4 -146 0 -20 7 -22 17 -28 156 -10 229 -15 263 -42 290 -19 18 -34
23 -78 23 -30 0 -57 4 -60 9 -3 5 1 25 9 45 18 42 19 96 4 130 -20 44 -55 49
-335 54 l-261 4 -22 -28 c-24 -31 -26 -63 -7 -117 13 -34 12 -39 -2 -45 -34
-14 -305 -6 -375 11 -48 12 -117 17 -230 18 -89 1 -193 4 -232 8 -64 6 -70 8
-84 36 -103 206 -211 314 -348 350 -123 32 -190 16 -290 -72 -37 -33 -89 -72
-115 -86 -57 -33 -103 -87 -125 -147 -9 -25 -18 -47 -20 -49 -2 -3 -27 18 -56
46 -59 57 -319 281 -387 333 -25 19 -71 57 -104 84 l-58 50 6 65 c5 55 3 71
-13 97 l-19 31 35 44 c68 85 77 132 39 207 -55 108 -152 183 -257 197 -63 9
-123 -18 -198 -90 -59 -56 -140 -98 -284 -147 -94 -32 -195 -148 -212 -241
-16 -92 -153 -314 -215 -347 -15 -8 -41 -7 -101 5 -44 8 -85 17 -90 21 -5 3
-24 29 -42 57 -69 107 -168 170 -267 170 -64 0 -87 -10 -154 -70 l-50 -44
-115 118 c-64 65 -136 134 -161 154 -43 35 -199 136 -286 185 -104 60 -640
123 -714 84 -14 -7 -35 -21 -47 -32 l-21 -20 24 -46 c24 -47 89 -299 103 -399
l8 -53 -302 0 c-230 0 -305 3 -312 13 -6 6 -18 35 -28 62 -10 28 -26 61 -36
75 -24 36 -119 90 -212 122 -61 20 -92 38 -126 71 -25 24 -62 53 -81 65 -43
25 -243 105 -445 179 -328 119 -433 157 -495 179 -36 13 -128 46 -205 74 -77
28 -167 59 -200 70 -129 40 -178 62 -238 106 -62 46 -318 180 -438 229 -70 28
-236 60 -369 70 -144 10 -210 24 -340 71 -127 46 -223 78 -430 141 l-115 35
-250 4 c-137 2 -267 -1 -288 -6z m7439 -1759 c29 -18 31 -24 37 -92 9 -103 37
-153 114 -206 49 -32 83 -46 160 -63 80 -19 165 -48 193 -68 2 -2 -18 -24 -46
-50 -28 -26 -62 -65 -76 -87 -14 -23 -48 -65 -75 -95 l-50 -55 -6 -120 c-4
-66 -13 -144 -22 -174 -8 -30 -18 -83 -21 -118 -13 -128 -30 -63 -40 157 -5
115 -3 150 15 237 12 55 21 118 21 138 0 104 -109 168 -195 115 -30 -19 -35
-19 -68 -5 -72 30 -105 14 -133 -62 -21 -59 -18 -193 6 -252 20 -53 37 -217
42 -421 l3 -105 -37 2 c-50 3 -130 38 -161 71 -57 60 -59 74 -64 492 -3 284
-8 406 -19 463 -18 97 -13 107 61 107 64 0 97 21 211 131 45 43 90 79 100 79
11 0 33 -9 50 -19z m764 -753 c74 -101 119 -198 120 -260 0 -38 -13 -41 -51
-13 -99 72 -144 71 -218 -3 -70 -71 -86 -142 -55 -253 22 -79 17 -89 -49 -89
-32 0 -59 5 -65 13 -8 9 -5 44 9 122 10 61 26 157 35 215 24 159 34 190 74
235 20 22 53 61 74 88 21 26 41 47 45 47 3 -1 40 -46 81 -102z m-5313 -1026
c-10 -10 -17 -28 -17 -40 0 -33 -19 -36 -49 -8 -15 14 -37 26 -49 26 -12 0
-22 4 -22 9 0 11 69 28 119 30 32 1 33 0 18 -17z m481 -16 c19 -11 14 -26 -9
-26 -11 0 -32 -9 -46 -20 -30 -23 -39 -20 -45 17 -3 16 -8 36 -12 45 -7 15 -3
16 46 4 30 -7 60 -16 66 -20z m7638 -91 c2 -5 -3 -18 -11 -29 -13 -18 -15 -18
-62 5 l-48 24 40 6 c52 8 78 6 81 -6z m74 -10 c-12 -15 -30 -12 -30 6 0 5 10
9 21 9 18 0 19 -2 9 -15z m-375 -35 c-3 -5 -14 -10 -23 -10 -15 0 -15 2 -2 10
20 13 33 13 25 0z m-7605 -61 c0 -14 -54 -11 -75 5 -19 14 -19 15 5 35 l25 20
23 -25 c12 -14 22 -29 22 -35z m7502 8 c-12 -13 -22 -33 -22 -45 0 -17 -6 -22
-27 -22 -16 0 -34 4 -41 9 -15 9 -3 21 57 58 47 29 60 29 33 0z m818 -7 l55
-29 -34 -1 c-19 0 -43 -7 -53 -17 -17 -15 -18 -14 -18 18 0 19 -5 40 -12 47
-20 20 3 13 62 -18z m-8950 -42 c0 -13 -35 -9 -55 5 -17 13 -17 15 6 30 22 16
24 16 36 -6 7 -12 12 -25 13 -29z m8396 0 c-9 -79 -25 -128 -41 -128 -19 0
-19 30 0 66 8 16 15 37 15 46 0 22 18 68 26 68 4 0 4 -24 0 -52z m-7331 32 c3
-5 1 -10 -4 -10 -6 0 -11 5 -11 10 0 6 2 10 4 10 3 0 8 -4 11 -10z m256 -120
c64 -85 63 -108 -1 -31 -53 64 -76 81 -109 81 -24 0 -25 7 -11 46 l11 27 30
-29 c17 -16 53 -58 80 -94z m7805 3 c-7 -7 -26 7 -26 19 0 6 6 6 15 -2 9 -7
13 -15 11 -17z m-481 -93 c-50 -53 -69 -35 -59 57 l7 55 41 -41 40 -41 -29
-30z m-8239 -6 c9 -35 14 -67 10 -71 -11 -12 -101 40 -104 60 -2 10 9 38 24
64 24 42 28 45 39 29 7 -9 21 -46 31 -82z m169 86 c7 -11 -12 -40 -25 -40 -11
0 -21 30 -14 41 7 12 31 11 39 -1z m7523 -37 c49 -63 79 -122 65 -131 -29 -18
-204 -64 -225 -58 -13 3 -36 16 -53 30 l-29 24 43 56 c50 65 115 116 147 116
14 0 33 -14 52 -37z m-6854 10 c10 -26 -35 -46 -49 -23 -8 13 13 40 30 40 7 0
16 -8 19 -17z m7931 -3 c10 -11 16 -20 13 -20 -3 0 -13 9 -23 20 -10 11 -16
20 -13 20 3 0 13 -9 23 -20z m-1350 -103 c-21 -44 -24 -61 -16 -76 17 -32 13
-41 -19 -41 -41 0 -46 19 -20 77 19 44 69 108 77 99 2 -1 -8 -28 -22 -59z
m-6561 47 c26 -10 19 -30 -21 -63 -45 -37 -62 -39 -92 -7 -18 20 -21 28 -12
44 6 11 16 23 23 25 19 8 84 8 102 1z m8042 -119 c24 -46 14 -51 -32 -20 -35
24 -39 31 -40 73 l-2 47 28 -33 c15 -18 36 -49 46 -67z m-626 10 c0 -14 -8
-38 -19 -53 -10 -15 -26 -40 -36 -57 -17 -27 -19 -28 -26 -10 -18 46 -10 77
28 111 44 41 53 42 53 9z m-7337 -24 c6 -23 -19 -36 -47 -25 -22 8 -20 20 6
38 24 17 33 14 41 -13z m-1592 -22 c11 -28 10 -33 -6 -45 -10 -7 -22 -11 -26
-8 -17 10 -7 84 11 84 4 0 13 -14 21 -31z m1718 -134 c0 -17 -2 -16 -14 6 -8
14 -26 34 -41 43 l-26 18 21 22 c12 12 21 33 22 47 1 27 39 -105 38 -136z
m6797 81 c35 -72 37 -96 10 -96 -8 0 -16 17 -20 41 -4 22 -15 58 -26 80 -23
43 -24 49 -11 49 6 0 26 -33 47 -74z m-108 32 c-2 -13 -7 -23 -13 -23 -5 0
-11 10 -13 23 -2 15 2 22 13 22 11 0 15 -7 13 -22z m-7893 -41 c0 -26 -20 -25
-23 2 -3 16 1 22 10 19 7 -3 13 -12 13 -21z m110 2 c11 -17 -1 -21 -15 -4 -8
9 -8 15 -2 15 6 0 14 -5 17 -11z m8440 -10 c12 -18 -4 -56 -31 -74 -36 -24
-41 -12 -16 40 22 45 35 54 47 34z m545 -20 c0 -5 -4 -9 -10 -9 -5 0 -10 7
-10 16 0 8 5 12 10 9 6 -3 10 -10 10 -16z m-8730 -13 c0 -28 -21 -39 -58 -30
-34 8 -52 22 -52 40 0 10 15 14 55 14 51 0 55 -2 55 -24z m8625 -28 c7 -18 15
-49 17 -68 2 -29 0 -35 -18 -38 -24 -3 -34 27 -34 99 0 47 16 50 35 7z m-8504
-50 c25 -50 24 -60 -8 -56 -18 2 -35 15 -49 36 -19 27 -21 37 -11 62 11 28 12
29 30 12 11 -9 28 -34 38 -54z m279 22 c0 -5 -4 -10 -10 -10 -5 0 -10 5 -10
10 0 6 5 10 10 10 6 0 10 -4 10 -10z m344 -6 c17 -6 22 -24 8 -24 -5 0 -17 7
-28 15 -19 15 -8 20 20 9z m-924 -44 c0 -15 -7 -20 -24 -20 -32 0 -42 16 -19
29 28 16 43 13 43 -9z m8947 -12 c-3 -7 -5 -2 -5 12 0 14 2 19 5 13 2 -7 2
-19 0 -25z m-810 1 c22 -7 33 -19 40 -42 6 -24 15 -33 35 -35 33 -4 56 -29 64
-70 6 -31 5 -32 -25 -32 -30 0 -81 39 -81 61 0 5 -20 20 -45 35 -36 21 -45 31
-45 53 0 43 8 47 57 30z m-8009 -11 c7 -7 12 -29 12 -50 0 -34 -3 -38 -24 -38
-28 0 -56 24 -56 46 0 44 41 69 68 42z m8222 -8 c0 -5 -4 -10 -10 -10 -5 0
-10 5 -10 10 0 6 5 10 10 10 6 0 10 -4 10 -10z m-7815 -20 c3 -5 -1 -10 -10
-10 -9 0 -13 5 -10 10 3 6 8 10 10 10 2 0 7 -4 10 -10z m8434 -70 c13 -76 3
-96 -31 -62 -22 21 -22 23 -5 51 9 16 17 42 17 57 0 43 8 24 19 -46z m-8954
-4 c9 -27 -2 -61 -21 -61 -5 1 -20 20 -33 44 -18 34 -21 45 -11 51 21 13 54
-5 65 -34z m265 24 c0 -5 -7 -10 -16 -10 -8 0 -12 5 -9 10 3 6 10 10 16 10 5
0 9 -4 9 -10z m7678 -9 c3 -8 -1 -12 -9 -9 -7 2 -15 10 -17 17 -3 8 1 12 9 9
7 -2 15 -10 17 -17z m-8138 -21 c0 -5 -2 -10 -4 -10 -3 0 -8 5 -11 10 -3 6 -1
10 4 10 6 0 11 -4 11 -10z m665 -3 c13 -11 15 -16 6 -22 -8 -4 -21 1 -34 14
-17 16 -18 21 -6 21 8 0 23 -6 34 -13z m410 -1 c34 -15 46 -38 25 -51 -9 -6
-128 20 -138 30 -3 2 -2 11 1 20 8 19 66 20 112 1z m6365 -58 c0 -16 -43 -67
-52 -62 -4 3 -8 33 -8 66 l0 62 30 -29 c17 -16 30 -33 30 -37z m709 -9 c20
-23 60 -65 90 -94 37 -36 52 -57 48 -69 -9 -22 -69 -21 -97 2 -20 16 -21 21
-9 40 11 17 11 24 1 34 -10 10 -17 10 -34 -1 -29 -18 -45 1 -57 64 -15 79 3
87 58 24z m185 18 c13 -20 -2 -50 -28 -55 -22 -5 -31 24 -17 54 12 28 28 28
45 1z m196 13 c0 -5 -9 -10 -20 -10 -11 0 -20 5 -20 10 0 6 9 10 20 10 11 0
20 -4 20 -10z m-8234 -21 c8 -14 -21 -44 -34 -35 -14 8 -3 46 14 46 7 0 16 -5
20 -11z m-828 -76 c2 -12 -2 -32 -9 -45 -12 -21 -12 -21 -19 -3 -4 11 -10 33
-14 48 -6 26 -4 28 16 25 15 -2 24 -11 26 -25z m1707 -10 c-4 -21 -12 -47 -18
-58 -10 -19 -11 -19 -17 6 -4 14 -15 37 -24 52 l-17 26 33 4 c18 2 37 5 42 5
4 1 5 -15 1 -35z m7442 15 c-3 -8 -6 -5 -6 6 -1 11 2 17 5 13 3 -3 4 -12 1
-19z m-8063 -9 c31 -24 33 -39 7 -39 -12 0 -26 12 -35 30 -17 35 -9 38 28 9z
m7114 -2 c8 -9 5 -30 -12 -77 -30 -87 -85 -200 -96 -200 -15 0 -59 93 -66 140
-8 48 10 73 86 121 50 31 72 36 88 16z m1353 -8 c16 -30 3 -129 -17 -129 -54
0 -71 57 -34 118 23 37 35 40 51 11z m-8112 -9 c35 -10 94 -59 112 -93 8 -14
2 -33 -25 -81 -42 -74 -58 -90 -85 -81 -42 13 -81 122 -81 227 0 33 3 38 23
38 12 0 38 -4 56 -10z m-514 -10 c3 -5 1 -10 -4 -10 -6 0 -11 5 -11 10 0 6 2
10 4 10 3 0 8 -4 11 -10z m7415 -49 c9 -49 -5 -73 -60 -101 -22 -11 -42 -20
-45 -20 -6 0 62 138 78 158 13 17 18 10 27 -37z m121 26 c-13 -13 -26 -3 -16
12 3 6 11 8 17 5 6 -4 6 -10 -1 -17z m-7196 -27 c3 -5 -1 -10 -9 -10 -9 0 -16
5 -16 10 0 6 4 10 9 10 6 0 13 -4 16 -10z m-615 -48 c-7 -3 -16 2 -21 9 -16
25 -9 32 12 13 13 -12 16 -20 9 -22z m289 -47 c0 -5 -4 -3 -9 5 -5 8 -9 22 -9
30 0 16 17 -16 18 -35z m-80 1 c14 -16 53 -167 45 -175 -7 -8 -89 37 -110 61
-10 10 -18 34 -18 53 0 57 54 97 83 61z m7717 0 c6 -16 -84 -226 -97 -226 -10
0 -21 94 -17 150 3 40 7 47 43 67 47 26 64 28 71 9z m-7347 -96 c134 -135 133
-160 -4 -160 -129 0 -165 20 -165 92 0 37 53 158 69 158 6 0 51 -41 100 -90z
m7709 6 c-2 -11 -9 -21 -15 -24 -9 -2 -13 9 -13 40 1 40 2 42 16 23 8 -11 13
-29 12 -39z m-188 28 c0 -8 -4 -12 -10 -9 -5 3 -10 10 -10 16 0 5 5 9 10 9 6
0 10 -7 10 -16z m863 -42 c7 -11 -36 -95 -50 -100 -8 -2 -13 6 -13 20 0 13 -5
29 -11 35 -18 18 -3 41 28 46 15 2 31 5 35 6 4 0 9 -2 11 -7z m-1249 -29 c11
-40 29 -212 23 -227 -4 -11 -19 -16 -47 -16 -36 0 -48 7 -96 52 -77 72 -82 84
-48 111 32 26 146 97 156 97 4 0 9 -8 12 -17z m367 -96 l19 -37 -32 -20 c-37
-23 -105 -46 -113 -38 -5 5 58 147 71 161 10 9 27 -12 55 -66z m-619 47 c10
-6 -15 -75 -26 -71 -6 2 -22 23 -35 46 l-23 42 38 -7 c22 -3 42 -8 46 -10z
m-7902 -35 c0 -24 -16 -25 -30 0 -7 14 -6 21 3 24 18 6 27 -2 27 -24z m1290
25 c0 -14 -43 -64 -55 -64 -14 0 -37 54 -28 64 8 8 83 8 83 0z m7916 -9 c11
-28 -60 -117 -79 -99 -7 7 19 82 34 101 15 17 38 17 45 -2z m-1042 -191 c9 -3
16 -10 16 -15 0 -14 -26 -10 -40 6 -13 16 -3 20 24 9z m-7759 -44 c15 -29 15
-30 -8 -30 -13 0 -32 6 -43 14 -19 15 -19 15 1 30 28 21 32 20 50 -14z m8703
-23 c10 -8 9 -14 -4 -28 -10 -11 -23 -19 -29 -19 -13 0 -27 49 -19 62 5 8 32
0 52 -15z m-872 -62 c9 -14 14 -28 10 -32 -8 -8 -106 37 -106 49 0 4 18 8 40
8 31 0 43 -5 56 -25z m444 -74 c16 -16 26 -31 23 -35 -10 -10 -103 -7 -103 4
0 6 4 10 8 10 5 0 15 11 22 25 7 14 15 25 17 25 3 0 17 -13 33 -29z"/>
</g>
</svg>
